<?xml version="1.0" encoding="utf-8"?>
<!-- Generator: Adobe Illustrator 22.0.1, SVG Export Plug-In . SVG Version: 6.00 Build 0)  -->
<svg version="1.2" baseProfile="tiny" id="Ebene_1" xmlns="http://www.w3.org/2000/svg" xmlns:xlink="http://www.w3.org/1999/xlink"
	 x="0px" y="0px" viewBox="0 0 1024 786" xml:space="preserve">
<g>
	<path fill="#386FB6" d="M438.7,260.5c25.8,0,51.7,3.8,77.5,11.5c4.9,1.4,7.3,4.5,7.3,9.4v72.3c0,5.2-2.6,7.9-7.9,7.9h-29.3
		c-5.2,0-7.7-2.6-7.3-7.9l1.6-35.1c-14-8.4-29.5-12.6-46.6-12.6c-17.1,0-30.8,4.1-41.1,12.3c-10.3,8.2-15.5,19.6-15.5,34.3
		s4.7,26.6,14.1,35.9c9.4,9.3,22.9,17.2,40.3,23.8c17.5,6.6,29.2,11.2,35.1,13.6c5.9,2.4,14.6,7,25.9,13.6
		c11.3,6.6,19.7,13.2,25.1,19.6c5.4,6.5,10.5,15.1,15.2,25.9c4.7,10.8,7.1,22.9,7.1,36.1c0,34.6-10.9,61.5-32.7,80.9
		c-21.8,19.4-52.8,29.1-93,29.1c-29.7,0-59-4.5-88-13.6c-4.9-1.4-7.3-4.5-7.3-9.4V525c0-5.2,2.6-7.9,7.9-7.9h29.3
		c5.2,0,7.7,2.6,7.3,7.9l-2.1,43.5c4.5,4.2,12.1,8.1,22.8,11.8c10.6,3.7,21.6,5.5,32.7,5.5c43.3,0,65-17.6,65-52.9
		c0-17.1-5.8-30.6-17.3-40.6s-26.5-18-44.8-24.1c-18.3-6.1-32.2-11.5-41.6-16.2s-19-10.9-28.8-18.6c-19.6-14.7-29.3-37.2-29.3-67.6
		c0-30.4,10.5-55.5,31.4-75.4S401.7,260.5,438.7,260.5z"/>
	<path fill="#386FB6" d="M694.3,617.7l-98-305.9h-32.5c-5.2,0-7.9-2.6-7.9-7.9v-26.7c0-5.2,2.6-7.9,7.9-7.9h133
		c5.2,0,7.9,2.6,7.9,7.9V304c0,5.2-2.6,7.9-7.9,7.9h-32l74.4,250.9l84.9-250.9h-33.5c-5.2,0-7.9-2.6-7.9-7.9v-26.7
		c0-5.2,2.6-7.9,7.9-7.9h110.5c5.2,0,7.9,2.6,7.9,7.9V304c0,5.2-2.6,7.9-7.9,7.9h-27.8L766.1,617.7c-2.1,4.9-5.6,7.3-10.5,7.3h-50.8
		C699.9,625.1,696.4,622.6,694.3,617.7z"/>
</g>
<g>
	<path fill="#7FBD7E" d="M147.5,725.7H192v-31.1l-10.6,0.8c-2.1,0.1-3.1-0.8-3.1-2.9v-11.7c0-2.1,1-3.1,3.1-3.1h37
		c2.1,0,3.1,1,3.1,3.1v11.7c0,2.1-1,3.1-3.1,2.9l-10-0.6v30.9h48v-47.8l-14.8,0.8c-2.1,0.1-3.1-0.8-3.1-2.9v-11.7
		c0-2.1,1-3.1,3.1-3.1h28c2.1,0,3.1,1,3.1,3.1v96c0,2.1-1,3.1-3.1,3.1h-10.2c-2.1,0-3.1-1-3.1-3.1v-11.1H147.8v11.1
		c0,2.1-1,3.1-3.1,3.1H134c-2.1,0-3.1-1-3.1-3.1v-91.9c0-2.1,1-3.1,3.1-3.1h28c2.1,0,3.1,1,3.1,3.1v11.7c0,2.1-1,3.1-3.1,2.9
		l-14.4-0.8V725.7z"/>
	<path fill="#7FBD7E" d="M147.8,612.9h65.6c7,0,12.7-0.3,17.2-1c4.5-0.7,8.9-2.1,13.3-4.2c8.4-4,12.5-12.7,12.5-26
		c0-13.3-3.6-22.5-10.9-27.7c-7.2-5.1-17.7-7.7-31.5-7.7h-66.2v11.1c0,2.1-1,3.1-3.1,3.1H134c-2.1,0-3.1-1-3.1-3.1v-42.2
		c0-2.1,1-3.1,3.1-3.1h10.6c2.1,0,3.1,1,3.1,3.1v11.1h70.6c15.3,0,28.3,3.6,38.8,10.9c5.6,3.9,10,9.6,13.2,17
		c3.2,7.4,4.8,16.5,4.8,27c0,20.6-4.5,34.9-13.5,43c-9,8.1-22.7,12.1-41,12.1h-72.9v11.1c0,2.1-1,3.1-3.1,3.1H134
		c-2.1,0-3.1-1-3.1-3.1v-45.5c0-2.1,1-3.1,3.1-3.1h10.6c2.1,0,3.1,1,3.1,3.1V612.9z"/>
	<path fill="#7FBD7E" d="M269.5,498.5h-10.2c-2.1,0-3.1-1-3.1-3.1v-10.9H147.5v10.9c0,2.1-1,3.1-3.1,3.1H134c-2.1,0-3.1-1-3.1-3.1
		c-0.8-17.8-1.3-32.6-1.3-44.5c0-36.2,12.9-54.3,38.8-54.3c9.1,0,17,2.3,23.9,6.9s12.1,10.7,15.8,18.4l48-24.4v-12.9
		c0-2.1,1-3.1,3.1-3.1h10.2c2.1,0,3.1,1,3.1,3.1v27.6c0,2.1-0.9,3.6-2.7,4.6L213.7,445v4.2c0,4.5-0.2,8.4-0.6,11.9h43V448
		c0-2.1,1-3.1,3.1-3.1h10.2c2.1,0,3.1,1,3.1,3.1v47.4C272.6,497.5,271.6,498.5,269.5,498.5z M146.9,461.1h50.3
		c0.1-1.1,0.2-2.7,0.2-4.8c0-11.3-2.2-20-6.7-26.3c-4.5-6.3-11.1-9.4-20-9.4c-15.9,0-23.8,11-23.8,33V461.1z"/>
	<path fill="#7FBD7E" d="M147.5,332.3H192v-31.1l-10.6,0.8c-2.1,0.1-3.1-0.8-3.1-2.9v-11.7c0-2.1,1-3.1,3.1-3.1h37
		c2.1,0,3.1,1,3.1,3.1v11.7c0,2.1-1,3.1-3.1,2.9l-10-0.6v30.9h48v-47.8l-14.8,0.8c-2.1,0.1-3.1-0.8-3.1-2.9v-11.7
		c0-2.1,1-3.1,3.1-3.1h28c2.1,0,3.1,1,3.1,3.1v96c0,2.1-1,3.1-3.1,3.1h-10.2c-2.1,0-3.1-1-3.1-3.1v-11.1H147.8v11.1
		c0,2.1-1,3.1-3.1,3.1H134c-2.1,0-3.1-1-3.1-3.1v-91.9c0-2.1,1-3.1,3.1-3.1h28c2.1,0,3.1,1,3.1,3.1v11.7c0,2.1-1,3.1-3.1,2.9
		l-14.4-0.8V332.3z"/>
</g>
<g>
	<path fill="#333333" d="M354.5,684c10.3,0,18.5,2.8,24.5,8.3c6,5.5,9,13.1,9,22.7v45.9h-13.4v-10.3h-0.6
		c-5.8,8.5-13.5,12.8-23.1,12.8c-8.2,0-15.1-2.4-20.6-7.3c-5.5-4.9-8.3-10.9-8.3-18.2c0-7.7,2.9-13.8,8.7-18.4
		c5.8-4.6,13.6-6.8,23.3-6.8c8.3,0,15.2,1.5,20.5,4.6v-3.2c0-4.9-1.9-9-5.8-12.4c-3.9-3.4-8.4-5.1-13.5-5.1c-7.8,0-14,3.3-18.5,9.9
		l-12.3-7.8C331.2,688.8,341.2,684,354.5,684z M336.4,738.1c0,3.6,1.5,6.7,4.6,9.1c3.1,2.4,6.7,3.6,10.9,3.6
		c5.9,0,11.1-2.2,15.7-6.5c4.6-4.4,6.9-9.5,6.9-15.4c-4.4-3.4-10.4-5.2-18.2-5.2c-5.7,0-10.4,1.4-14.2,4.1
		C338.3,730.6,336.4,734,336.4,738.1z"/>
	<path fill="#333333" d="M417.7,760.9h-14v-74.5h13.4v10.3h0.6c2.1-3.6,5.4-6.7,9.8-9.1c4.4-2.4,8.8-3.6,13.2-3.6
		c5.5,0,10.3,1.3,14.4,3.8c4.2,2.5,7.2,6,9.1,10.5c6.2-9.5,14.7-14.3,25.7-14.3c8.6,0,15.3,2.6,19.9,7.9c4.7,5.3,7,12.8,7,22.5v46.5
		h-14v-44.4c0-7-1.3-12-3.8-15.1c-2.5-3.1-6.8-4.6-12.8-4.6c-5.4,0-9.9,2.3-13.5,6.8c-3.6,4.6-5.5,9.9-5.5,16.1v41.2h-14v-44.4
		c0-7-1.3-12-3.8-15.1c-2.5-3.1-6.8-4.6-12.8-4.6c-5.4,0-9.9,2.3-13.5,6.8c-3.6,4.6-5.5,9.9-5.5,16.1V760.9z"/>
	<path fill="#333333" d="M670.9,710.9c0,15.2-4.5,27.3-13.5,36.3c-10.1,10.7-23.5,16.1-40,16.1c-15.8,0-29.2-5.5-40.1-16.4
		s-16.4-24.4-16.4-40.4c0-16,5.5-29.5,16.4-40.4s24.3-16.4,40.1-16.4c8,0,15.6,1.4,22.7,4.3c7.1,2.8,12.9,6.8,17.5,12l-10,10
		c-3.3-4.1-7.7-7.2-13-9.5c-5.3-2.3-11-3.4-17.1-3.4c-11.9,0-21.9,4.1-30.1,12.3c-8.1,8.3-12.2,18.7-12.2,31.2
		c0,12.5,4.1,22.9,12.2,31.2c8.2,8.2,18.2,12.3,30.1,12.3c10.8,0,19.9-3,27.1-9.1c7.2-6.1,11.4-14.4,12.5-25.1h-39.5v-13.1h52.8
		C670.6,705.5,670.9,708.2,670.9,710.9z"/>
	<path fill="#333333" d="M701.9,760.9h-14V652h14l37.9,66.3h0.6l37.9-66.3h14v108.9h-14v-64.6l0.6-18.2h-0.6l-34.1,59.8h-8.2
		L701.9,678h-0.6l0.6,18.2V760.9z"/>
	<path fill="#333333" d="M814.1,760.9V652h39.4c8.6,0,16,2.8,22.2,8.5c6.2,5.6,9.3,12.6,9.3,21.1c0,10.7-4.9,18.3-14.7,22.7v0.6
		c5.6,1.8,10,5,13.4,9.5c3.3,4.5,5,9.7,5,15.4c0,8.9-3.2,16.3-9.7,22.2c-6.3,5.9-14,8.8-23.3,8.8H814.1z M828.1,665.4v33.3h25.4
		c5,0,9.1-1.7,12.5-5c3.3-3.4,5-7.3,5-11.7c0-4.3-1.6-8.1-4.9-11.6c-3.2-3.3-7.2-5-12-5H828.1z M828.1,711.8v35.7h28.1
		c5.1,0,9.4-1.8,12.9-5.3c3.4-3.5,5.2-7.8,5.2-12.6c0-4.8-1.8-8.9-5.3-12.5c-3.5-3.5-8-5.3-13.4-5.3H828.1z"/>
</g>
</svg>
